<svg id="Layer_1" data-name="Layer 1" xmlns="http://www.w3.org/2000/svg" viewBox="0 0 436.8 816.18"><defs><style>.cls-1{fill:#fac99e;}.cls-2{fill:#fff;}.cls-3{fill:#41240b;}.cls-4{fill:#f7af7c;}.cls-5{fill:#f46755;}.cls-6{fill:#b4d0f7;}.cls-7{fill:#8bb7d6;}.cls-8{fill:#c4321b;}.cls-9{fill:#e43d1b;}.cls-10{fill:#7f6a58;}</style></defs><path class="cls-1" d="M298.78,395.18c5.63-1.31,11.48-.61,17.21-1.15,6.63-.09,13.29-.25,19.93.19,4.61.24,9.3-.16,13.81,1a158.32,158.32,0,0,1,31.3,6c4.27,1.19,8.24,3.13,12.35,4.72,13.29,5.86,25.16,15.14,32.7,27.18a69.33,69.33,0,0,1,10,24.93c1.16,5.86,2.77,11.72,2.51,17.73-.09,9.08.23,18.18-.35,27.25-1.12,6.07-.45,12.27-1.24,18.36a61.44,61.44,0,0,0-.72,15c1.57-2.43,2.16-5.28,3.26-7.92,1.72-4.45,3.16-9,4.75-13.48l.4,1.92c2.38-2,4.79-4.32,8-5,2.37-.49,5-1.19,7.25.06,3.05,1.55,4,5.11,4.28,8.15,1,11.06-3.27,21.78-8.54,31.45a102.19,102.19,0,0,1-15.08,19.29c-2.19,1.95-4.93,3.81-5.39,6.87C431.28,598,421.36,617,408,633.19c-11.37,13.74-24.09,26.78-39.53,36.45l-1.37.83c-5.81,3.2-12,5.78-17.82,8.88-3.51.72-7,1.54-10.49,2.34-5.95,1.49-12.16.56-18.23.84s-11.54-2.29-17.37-3.19c-3.51-1.65-6.89-3.53-10.33-5.3-2.36-1.38-5-2.3-7.25-3.81-4.76-3.33-9.59-6.58-14.39-9.84-5.47-3.57-10-8.24-14.34-12.95-12.89-13-24.37-27.58-31.69-44.15-4-8.09-6.33-16.83-8.47-25.52-.67-3.28-5-3.22-7.12-5.36-10.6-10-19.1-22.27-23.38-36-.65-2.89-1.76-5.71-1.77-8.71-.4-4.67-.89-9.91,2-14,1.79-2.54,5.36-2.88,8.23-2.07,3.72.44,6.53,2.93,9.17,5.23l.4-1.92c2.6,7.15,4.69,14.55,8,21.42a73.83,73.83,0,0,0-.25-12.26c-1.21-5.68-.77-11.51-1.19-17.26-1.23-7.57-.72-15.26-.88-22.89.06-4.8-.14-9.6.2-14.39.52-3.47,1.32-6.91,2.08-10.35a69.9,69.9,0,0,1,10.22-26.16c8.46-13.47,22.25-23.5,37.53-29.13a57.84,57.84,0,0,1,9.07-3.22,157.81,157.81,0,0,1,29.74-5.54m-39.3,93.58c-5,.79-9.35,3.41-13.32,6.24-4.12,3.11-6.67,7.67-8.67,12.21-4.89,12.14.6,27.31,12.52,33.77,10.48,6.62,25.31,5.44,34.92-2.13a27.88,27.88,0,0,0,10.33-16.16c.58-5.63.88-11.62-1.62-16.9a36.94,36.94,0,0,0-4.16-6.85,32.54,32.54,0,0,0-11.26-8.26c-5.77-2.75-12.49-2.87-18.74-1.92m116.73,0A32.69,32.69,0,0,0,361.9,496c-3.17,2.63-5.26,6.19-7,9.77-2.36,4.87-2.14,10.39-1.79,15.62,1.73,12.94,14.31,23.46,28,23.79,8.6.85,17-2.86,23.18-8.31a30.29,30.29,0,0,0,8.7-19.9,31,31,0,0,0-7.81-19.48,32,32,0,0,0-8.8-6.24c-6.08-3.2-13.37-3.59-20.11-2.51m-55.88,41.8c-1.78,9.25-4.93,18.26-5.92,27.64a28.41,28.41,0,0,0-1.14,9.56,62,62,0,0,0,.25,13.82c1.58,4.29,4.18,8.6,8.7,10.59a11.43,11.43,0,0,0,9.54-1.77c2.63-1.69,5.39-4.85,3.65-8-1.62.91-3.33,2.09-5.33,1.7-2.78-.44-6.53-.53-7.79-3.42-1.39-3.52-2.62-7.23-2.43-11,0-5.71,0-11.42,0-17.13,0-4,1.09-8,1.27-12,.21-4.27,1.12-8.53.66-12.81a9.09,9.09,0,0,0-1.45,2.84M316,635.37c-3.13,1.31-6.46-5.79-8.35-2.85-1.74.28-8-5.66-9-4.44-2.61,3.14-2.82,7.49-1.77,11.22a19,19,0,0,0,6.62,7.63c1,.88,2.48.24,3.7.19-.37.52-.73,1-1.08,1.57,3.91,1.6,7.83,3.38,12.12,3.8a90.88,90.88,0,0,0,15.65.06c4.51-.41,8.62-2.33,12.75-3.95a14,14,0,0,0-2-1.44,10.77,10.77,0,0,0,3.66.2c4.38-2.91,8.3-7.46,8.06-12.8-.73-3.67-2.84,1.68-6.5,0-1-1.11-3-.31-4.35-1-6.27-3.39-7.12,1.54-14.33,1.93-5.06-.25-10.4-1.62-15.19-.15Z" transform="translate(-178.57 -240.12)"/><path class="cls-2" d="M259.48,488.76c6.25-.95,13-.83,18.74,1.91a32.7,32.7,0,0,1,11.26,8.27,37.16,37.16,0,0,1,4.16,6.85c2.5,5.28,2.2,11.26,1.62,16.89a27.9,27.9,0,0,1-10.33,16.17c-9.61,7.57-24.44,8.75-34.93,2.13-11.92-6.46-17.41-21.63-12.51-33.77,2-4.54,4.54-9.1,8.67-12.21,4-2.83,8.33-5.45,13.32-6.24m2,13.84c-3.46,1.16-7.19,2.86-8.75,6.23-2.94,4.71-3.24,11.06-.11,15.75,4.6,7.9,17.66,9.33,24,2.62a14.07,14.07,0,0,0,.59-20.38,16.14,16.14,0,0,0-15.76-4.22Z" transform="translate(-178.57 -240.12)"/><path class="cls-2" d="M376.21,488.76c6.74-1.08,14-.69,20.11,2.51a32,32,0,0,1,8.8,6.24,31,31,0,0,1,7.8,19.48,30.25,30.25,0,0,1-8.69,19.9c-6.22,5.45-14.58,9.16-23.19,8.31-13.64-.33-26.22-10.85-28-23.79-.36-5.23-.57-10.75,1.79-15.62,1.76-3.58,3.84-7.14,7-9.77a32.78,32.78,0,0,1,14.32-7.26m2.63,13.74c-7.45,1.64-12.8,9.18-11.5,16.34,1,6.95,7.82,12.91,15.29,12.6,5.38.11,11-2.6,13.51-7.26a14.94,14.94,0,0,0,1.39-11.6c-1.23-3-2.64-6.44-5.91-8a16.76,16.76,0,0,0-12.78-2.13Z" transform="translate(-178.57 -240.12)"/><path class="cls-2" d="M268.48,509.3c1.06-1.25,2.92-.81,4.38-.74,2.17.8,2.27,3.35,1.91,5.22-.06,1.51-1.92,1.6-3,2.16-1.4.56-2.58-.66-3.81-1.1-.57-1.8-1-4.06.55-5.54Z" transform="translate(-178.57 -240.12)"/><path class="cls-2" d="M375.65,508.56a13.92,13.92,0,0,1,3.29,0c1.29.88,2.79,2.17,2.79,3.8-.68,1.94-2.53,4.28-5,3.6-1.11-.56-3-.65-3-2.16C373.38,511.9,373.48,509.38,375.65,508.56Z" transform="translate(-178.57 -240.12)"/><path class="cls-2" d="M307.13,647.12A109.48,109.48,0,0,1,319.25,646c8.46-.05,17-.38,25.35,1.21a12.68,12.68,0,0,1,2,1.44c-4.13,1.62-8.23,3.54-12.74,3.95a90.88,90.88,0,0,1-15.65-.06c-4.29-.42-8.22-2.2-12.12-3.8.35-.53.71-1.05,1.08-1.57Z" transform="translate(-178.57 -240.12)"/><path class="cls-2" d="M263.09,831.18c.64-.7,1.25-.62,1.82.26-.12.27-.36.82-.47,1.1-1,0-1.43-.46-1.35-1.36Z" transform="translate(-178.57 -240.12)"/><path class="cls-3" d="M326.54,242.05a50.1,50.1,0,0,1,16.72-1.85c2.77.25,5.69-.22,8.3.93,5.51.56,10.44,3.17,15.54,5,1,.19,1.26,1.25,1.77,2-4.74-.59-9.72-1.1-14.35.3-2.52.31-5.17-.1-7.57.91a39.9,39.9,0,0,0-20.2,9.46c-3.76,2.78-5.56,7.1-7.79,11-.68,2.19-1.71,4.27-1.77,6.61-1.38,2.8-1,5.92-1,8.93,0,2.61-.33,5.33.95,7.75.24,2.83,1.68,5.36,3.1,7.81a20.07,20.07,0,0,0,16.37,8.78c11.48.49,23.61-6.48,26.65-17.36,0-3.25.71-6.76-.87-9.77-.77-2.89-2.77-5.25-3.85-8,2.43.56,3.77,2.86,5.53,4.37a88,88,0,0,1,12.08,18.27c1.36,2.6,2,5.46,3.09,8.15.08-4.34.6-8.91-.93-13.07-.13-2.39-.46-4.87.38-7.17,3.44,6,6.78,12.11,11,17.66a89.39,89.39,0,0,0,14.67,13.95c12,8.67,26.15,14.09,38.2,22.71,3.15,2.93,7,5.16,9.6,8.61a69.19,69.19,0,0,1,16,28.61c1.16,2.69.42,5.75,1.59,8.49.35,6.08.08,12.2.17,18.29-.16,3.63.33,7.35-.72,10.88s.29,7.17-1.3,10.47c-.76,2.43.17,5.15-1,7.51-1,1.84-.07,4.06-1.08,5.89-1.24,2.11-.18,4.71-1.55,6.79-3,12.78-5.77,25.67-9.81,38.22-3.06,10.7-6.18,21.42-10.19,31.84-1.59,4.49-3,9-4.75,13.47-1.1,2.65-1.69,5.5-3.26,7.93a61.41,61.41,0,0,1,.72-15c.79-6.09.12-12.29,1.24-18.36.58-9.07.26-18.17.35-27.25.26-6-1.35-11.87-2.51-17.73a69.33,69.33,0,0,0-10-24.93c-7.54-12-19.41-21.32-32.7-27.18-4.11-1.59-8.08-3.53-12.35-4.72a158.32,158.32,0,0,0-31.3-6c-4.51-1.13-9.2-.73-13.81-1-6.64-.44-13.3-.28-19.93-.19-5.73.54-11.58-.16-17.21,1.15A158.6,158.6,0,0,0,269,400.71a58.92,58.92,0,0,0-9.07,3.23c-15.28,5.63-29.07,15.66-37.53,29.13a69.9,69.9,0,0,0-10.22,26.16c-.76,3.43-1.56,6.87-2.08,10.35-.34,4.79-.14,9.59-.2,14.39.16,7.63-.35,15.32.88,22.89.42,5.75,0,11.58,1.19,17.26a73.83,73.83,0,0,1,.25,12.26c-3.33-6.87-5.41-14.27-8-21.42-4.27-11.07-7.5-22.47-10.78-33.83-1.76-4.49-2.44-9.26-3.91-13.83a20.38,20.38,0,0,1-.77-4.77l-.59,1.05c-.1-4.45-1.93-8.65-2.55-13-.74-2.14-.7-4.47-1.78-6.5-.91-1.87,0-4.12-1.17-5.93-1-1.83-.07-4.06-1.08-5.89s-.55-4-.73-6c0-1.54-1.08-2.84-1.08-4.37-.11-3.22.06-6.48-1-9.59-.45-7.82-.22-15.66-.19-23.48-.12-2.62,1.49-5,1.19-7.61-.16-2.19,1.29-4.07,1.29-6.26,2.07-8.77,7.23-16.49,12.48-23.83a137.15,137.15,0,0,1,10.9-10.52c5.28-4,11.18-7.14,16.87-10.56,11.24-5.57,22.32-11.8,31.43-20.28,5.16-5.82,10.37-11.74,13.71-18.74,1.1-1.89,1.58-4.17,3.18-5.77,1.18,3.3-1,6.34-.91,9.61-.1,3.78-.93,7.56-.42,11.35l1,.81c1.26-4.2,3.49-8.05,5.25-12.07a145.14,145.14,0,0,1,18.11-28.43c2.38-2.61,4.33-5.59,7.15-7.82a70.27,70.27,0,0,1,26.64-16.57Z" transform="translate(-178.57 -240.12)"/><path class="cls-3" d="M245.57,451c7.62-3.77,15.46-7.9,24.19-8.51,3,.09,6.39-.18,8.94,1.65a6.23,6.23,0,0,1-.81,7.64c-2.2,2.37-5.75,2.51-8.71,3.43-4.42,1.57-9,2.61-13.36,4.36-8.35,3.68-16.36,8.3-22.92,14.51-5.66,4.72-9,11.6-15.38,15.59-.74-.91-1.9-1.68-1.79-3,.2-5,3-9.34,5.57-13.48A80.23,80.23,0,0,1,245.57,451Z" transform="translate(-178.57 -240.12)"/><path class="cls-3" d="M372.9,442c2.63-1.54,5.92-1.5,8.91-1.27,7.33,1,13.95,4.35,20.26,7.85,7.28,3.75,13.25,9.34,18.7,15.18,2.9,2.64,4.57,6.15,7,9.12,2.76,4.55,5.55,9.48,5.53,14.89,0,1.29-1.19,2-2,2.86-3.19-1.92-5.15-5.07-7.46-7.81-8.29-12.24-21.09-21.42-35.23-26.75a73.08,73.08,0,0,1-6.91-2.52c-3.15-1.21-7.37-1.44-9.1-4.67a6.28,6.28,0,0,1,.23-6.88Z" transform="translate(-178.57 -240.12)"/><path class="cls-3" d="M261.47,502.6a16.14,16.14,0,0,1,15.76,4.22,14.06,14.06,0,0,1-.59,20.38c-6.37,6.71-19.43,5.28-24-2.62-3.13-4.69-2.83-11,.1-15.74,1.56-3.37,5.29-5.08,8.75-6.24m7,6.7c-1.58,1.48-1.12,3.74-.55,5.54,1.23.44,2.41,1.66,3.81,1.1,1.11-.56,3-.65,3-2.16.35-1.87.26-4.42-1.92-5.22-1.46-.07-3.31-.5-4.38.74Z" transform="translate(-178.57 -240.12)"/><path class="cls-3" d="M378.85,502.5a16.79,16.79,0,0,1,12.77,2.13c3.27,1.51,4.68,4.92,5.91,8a14.94,14.94,0,0,1-1.39,11.6c-2.47,4.66-8.13,7.37-13.51,7.26a15.23,15.23,0,0,1-15.28-12.6c-1.31-7.16,4-14.69,11.5-16.34m-3.2,6.06c-2.17.82-2.27,3.34-1.91,5.22.06,1.51,1.93,1.61,3,2.16,2.42.68,4.27-1.66,5-3.6,0-1.63-1.5-2.91-2.79-3.8A13.92,13.92,0,0,0,375.65,508.56Z" transform="translate(-178.57 -240.12)"/><path class="cls-3" d="M312,841.63c1.77,1.63,4,3.09,6.54,3,5.13.05,10.26.09,15.39,0a9.32,9.32,0,0,0,6.67-3.17c0,.24.1.74.12,1a57.51,57.51,0,0,0,5.87.26c13.4-.11,26.8.06,40.19-.09-.44,4.46-1.34,8.9-1.21,13.4.11,4.84-.72,9.64-.59,14.48.18,2.57-.74,5.06-.6,7.63,0,5.07,0,10.15,0,15.22,0,3.82-.27,7.66.51,11.43-.13,4.25.73,8.44.61,12.69,0,2.73.1,5.46.23,8.19,1.33,6.94,1.58,14,2.75,21,.12,3.46,1.37,6.74,1.51,10.2a23.74,23.74,0,0,1,1.18,6.36c3.45,17,7.31,34.08,13.54,50.44.71,2.12,1.71,4.24,1.6,6.52.17-.35.34-.69.52-1,.33,3.12,2.48,5.76,2.73,8.86-9.07-2-18.42-1.44-27.65-1.32a102,102,0,0,0-21.08,4c-6.11,1.8-12.32,4.74-15.78,10.11-.28-2.25.84-4.34,1-6.54.16-4.07,1.5-8,1.46-12.07.87-4.84,1-9.76,1.74-14.61.45-3.79,0-7.66,1-11.38.95-19,.81-38.1-.14-57.12-.21,1-.34,2-.63,3,.06-3.81.21-7.67-.62-11.43a35.81,35.81,0,0,1-.65-9.18c-.24.8-.4,1.62-.6,2.45a26.65,26.65,0,0,0-1.23-7.89c-1-6.26-2.91-12.34-4.59-18.44a104.37,104.37,0,0,0-14.46-29.82c-.48-.6-1-1.17-1.5-1.73-2.12,3.53-4.8,6.76-6.49,10.51-1.33,2.83-3.23,5.39-4.35,8.32a164.13,164.13,0,0,0-11,40c-.83,2.91-.39,6-1.17,8.92-1.29,5.3.06,10.86-1.46,16.11-.28,3.78-.09,7.57-.2,11.36-.63,8.24.24,16.5.1,24.76-.29,2.37,1,4.56.8,6.92-.16,3.84.86,7.61.7,11.45-.14,2.77.62,5.48.74,8.24a82.12,82.12,0,0,0,1.19,9.48c.24,6.53,1.79,12.9,2.57,19.37-3.92-5.68-10.51-8.93-17.22-10.71-8.12-2.12-16.48-3.83-24.95-3.64-7.6-.11-15.23-.19-22.68,1.45.57-3,2.35-5.66,3.14-8.63a336.59,336.59,0,0,0,15.49-57.68c.94-2.45.62-5.16,1.57-7.61.43-2.84.46-5.74,1.27-8.52.7-6.17,1.43-12.35,2.19-18.5,0-4.59.48-9.15.77-13.73.92-5.33.35-10.77.59-16.15-.06-6.35.2-12.7-.13-19,2.64-.59,5.92-1.59,6.14-4.65.75-3.4-3.27-4.71-5.62-6.2,6.11,1.68,11,6,17.3,7.25,1.58.15,3.52.45,4.76-.74,1.88-1.72,1.87-4.48,1.5-6.76-1.58-2.17-4.5-2.64-6.88-3.67-3-1.26-6.12-2.24-8.75-4.1,4.24.93,8.09,3,12.3,4,3.47.86,7.14,1.9,10.74,1.11,2.94-.81,2.84-4.26,2.48-6.59-.25-2.08-2.65-2.8-4.44-3.34a122.39,122.39,0,0,1-15.89-4.71,21.92,21.92,0,0,1,4.79.07,80.88,80.88,0,0,0,12.63,1c3.84-1.06,4.52-5.9,2.75-8.88a61.75,61.75,0,0,0,8.71,0,2.41,2.41,0,0,0,2.07-1Z" transform="translate(-178.57 -240.12)"/><path class="cls-1" d="M578.47,549.29c4-1.72,8.45.1,11.8,2.24,2.64,2.6,6.11,7,2.7,10.37-2.94,3.49-4.88,7.6-7.3,11.4-4,7.6-8.73,14.81-13.08,22.22-1.62,2.77-3.6,5.38-4.85,8.33l1.06.55c1.69-1.35,2.55-3.34,3.63-5.1,4.93-8.27,10-16.48,15.06-24.66,2.36-4,5.15-7.75,7-12l.25-.56c2.33-.62,4.87-1.22,7.23-.46a25.2,25.2,0,0,1,6,4.29,7.2,7.2,0,0,1,2.43,5.28c-.45,4.64-3.87,8.19-6.27,12a24.12,24.12,0,0,0-3.24,3.23c-7.13,9.08-14.17,18.22-21.22,27.36-3-2.65-5.56-5.88-9.25-7.8a58.55,58.55,0,0,0-14.86-7c2.58-6.5,6.39-12.49,8.55-19.14,3.06-7.17,5.73-14.48,8.46-21.77l-1.37.09c-3.37,5.77-5.2,12.23-7.47,18.44-3.57,7.14-6.73,14.45-9.69,21.84a77.69,77.69,0,0,0-9-3.24c-.56,1.8,1.6,2.28,2.91,2.79a99.35,99.35,0,0,1,22.92,10.43c3.76,2.32,6.21,6,9.72,8.63,1.49-3.72,4.38-6.65,6.74-9.85,3.72-5,7.56-9.82,11.27-14.77,2.19-2.93,4.65-5.7,6.4-8.9,4.22,1.63,9.08,4,10.19,8.64,1,3.87-1.78,7.3-3.94,10.29-5.47,6.92-11.52,13.39-17,20.27-4.06,5.27-9.06,10-11.88,16a52.85,52.85,0,0,1-15.74,16,29.18,29.18,0,0,1-9.66,3.55c-4.33.69-8.45-1.26-12.25-3-2.9-1.35-4.67-4-6.88-6.08-4.71-.36-9.59-1.44-13.36-4.33-6.45-6.21-7-15.63-6.22-23.83,1.14-7.91-1.06-15.91-4.84-22.92a23,23,0,0,1-1.71-18.39c1.29-3.33,4.23-6.67,8.22-6.85,3.11-.17,6,1.19,8.8,2.39,2.48.95,3,3.66,3.51,5.88.72,4,1.6,8.09,1.18,12.2-.2,4.18-.53,8.7,1.61,12.52,2.78-4.52,3.42-9.78,4.92-14.72.53-1.82,1-3.64,1.49-5.46,1.08-4,1.87-8.2,3.46-12.11,1.25-2.9,1.46-6.07,2.59-9,1.74-4.88,1.88-10.82,6.36-14.35,3.81-3,9.28-1.56,13.17.48,2.45,1.2,3.68,3.62,4.67,5.94,2.3-2.47,3.39-6.17,6.85-7.44Z" transform="translate(-178.57 -240.12)"/><path class="cls-1" d="M244.77,819.32c6.44-.17,12.79,1.35,19.24,1a52.24,52.24,0,0,1,1.16,9.65c-.06.37-.2,1.13-.26,1.51-.57-.88-1.18-1-1.82-.26-.08.9.36,1.35,1.35,1.36l.89,1.3a29.88,29.88,0,0,0,12.12,4.53c4.81.63,9.52,2,14.39,2l-1.1.63a25.31,25.31,0,0,1,10.5,1.59c1.76,3,1.09,7.82-2.75,8.88a80.88,80.88,0,0,1-12.63-1,22,22,0,0,0-4.8-.07,123,123,0,0,0,15.9,4.71c1.79.54,4.19,1.26,4.44,3.34.36,2.33.46,5.78-2.49,6.59-3.59.79-7.26-.25-10.74-1.11-4.2-1-8.05-3.1-12.3-4,2.64,1.86,5.79,2.84,8.76,4.1,2.38,1,5.3,1.5,6.88,3.67.37,2.28.38,5-1.5,6.76-1.24,1.19-3.18.89-4.76.74-6.27-1.23-11.19-5.57-17.3-7.25,2.35,1.49,6.37,2.8,5.62,6.2-.22,3.06-3.5,4.06-6.14,4.65-2.65.41-5-1.14-7.16-2.32-4.15-2.69-8.64-4.85-13-7.26-3.16-1.78-5.53-4.51-8.36-6.68-5.31-4.36-10.84-9.33-12.46-16.09.64-2,2-3.58,3.13-5.34,2.75-4.29,5.78-8.42,8.75-12.58,2.21-3,3.89-6.37,6.41-9.18Z" transform="translate(-178.57 -240.12)"/><path class="cls-4" d="M320.33,530.56a9.09,9.09,0,0,1,1.45-2.84c.46,4.28-.45,8.54-.66,12.81-.18,4-1.31,8-1.27,12,0,5.71,0,11.42,0,17.13-.19,3.81,1,7.52,2.43,11,1.26,2.89,5,3,7.79,3.42,2,.39,3.71-.79,5.33-1.7,1.74,3.13-1,6.29-3.65,8a11.43,11.43,0,0,1-9.54,1.77c-4.52-2-7.12-6.3-8.7-10.59a62,62,0,0,1-.25-13.82,28.32,28.32,0,0,1,1.14-9.55c1-9.39,4.14-18.4,5.92-27.65Z" transform="translate(-178.57 -240.12)"/><path class="cls-4" d="M585.67,573.31c2.42-3.81,4.36-7.92,7.3-11.41l1.48.73c-1.81,4.26-4.6,8-7,12q-7.62,12.27-15.06,24.66c-1.08,1.76-1.93,3.75-3.63,5.1l-1.06-.55c1.25-3,3.23-5.56,4.85-8.33,4.36-7.41,9.09-14.62,13.08-22.21Z" transform="translate(-178.57 -240.12)"/><path class="cls-4" d="M571.16,558.21l1.37-.09c-2.74,7.28-5.41,14.59-8.47,21.76-2.15,6.66-6,12.65-8.54,19.14a59.25,59.25,0,0,1,14.86,7c3.68,1.91,6.21,5.14,9.24,7.8q10.57-13.71,21.22-27.37a24,24,0,0,1,3.24-3.22l.88.36c-1.75,3.21-4.2,6-6.39,8.9-3.72,4.95-7.55,9.83-11.27,14.78-2.37,3.2-5.25,6.13-6.74,9.84-3.51-2.61-6-6.3-9.72-8.62A99,99,0,0,0,547.91,598c-1.31-.52-3.46-1-2.91-2.79a77,77,0,0,1,9,3.23c3-7.38,6.13-14.7,9.69-21.84,2.28-6.21,4.1-12.66,7.48-18.43Z" transform="translate(-178.57 -240.12)"/><path class="cls-4" d="M303.21,679.34c5.83.9,11.36,3.51,17.37,3.19s12.28.65,18.23-.84c3.49-.8,7-1.62,10.49-2.34-4,2.49-8.05,4.79-12,7.25l.61,1.18c-4.15-3.53-10-3.29-15.2-3a15.1,15.1,0,0,0-7.83,2.62c-3.14-3.52-7.77-5.37-11.63-8.06Z" transform="translate(-178.57 -240.12)"/><path class="cls-5" d="M283,615.25c32.37,16.72,57.26,20.84,90.55.14-4.81,11.38-18.64,34-27.82,33.42-4.93-3.7-27.48-5.72-39,.06-1.22,0-3.1-1.06-4.13-1.94-5.72-6.31-22.3-26.67-19.61-31.68Z" transform="translate(-178.57 -240.12)"/><path class="cls-6" d="M367.12,670.47l1.37-.83a43.23,43.23,0,0,1,.42,6.43c3.42.46,7-.38,10.29.88,2.18.71,4.52.21,6.75.6,5.63,1.16,11.41,1.4,17.08,2.33,2.16.62,3.53,2.5,5.38,3.63a206.06,206.06,0,0,0,22.47,13.59c2.67,1.67,5.74,2.76,8.15,4.81a28.26,28.26,0,0,0,4.86,3c3.11,1.6,5.62,4,8.65,5.75.28,1.86,66.49-65.12,66.71-63.25,12.57,7.27,21.34,9.09,30.83,16C558,669.19,479.35,758.7,455,753.6l-10.24-1.91c-2.36-.29-3.94-2.13-5.78-3.37-2.89-2.09-5.28-4.72-8.22-6.76-2.59-1.75-4.51-4.22-7.08-6-4.82-3.63-9.15-7.78-13.57-11.82-2.25-1.64-4-3.89-6.6-5.1-.38,3.44-.16,6.9-.21,10.35,0,2.58-1.33,5-1.29,7.56-.13,2.44.4,5-.44,7.34-1.42,3.3,0,7-1.7,10.31-1.43,11.28-4.82,22.27-6.24,33.55-1,2.76-.47,5.8-1.64,8.53-.92,2.35,0,4.93-.95,7.3a15.15,15.15,0,0,0-.64,6c.15,2-1.13,3.69-1.21,5.63-.14,2.55.34,5.18-.57,7.66s-.68,5-.77,7.48c-5.06-.55-10.16-.18-15.24-.27-11.38.07-22.76-.17-34.12.15-2.19-.25-4.33-.91-6.55-.87-5.53-.06-11.16-.6-16.58.66-2,.48-4.07,0-6.1,0-14.7-.17-29.4.17-44.1-.17a52.14,52.14,0,0,0-1.16-9.64c-.57-2.7-1.55-5.36-1.35-8.15s-1.58-5.39-1.24-8.25c-2.27-15.21-5.35-30.35-8.57-45.41a10.09,10.09,0,0,1-.6-4c.11-2.23-1.35-4.19-1.26-6.4a21,21,0,0,0-.55-6.27c-1.1-3.46-.34-7.1-.94-10.62-.66-4.15-.49-8.37-1.23-12.52a41.5,41.5,0,0,0-10.38,12.3,57.67,57.67,0,0,0-9,22.53c-1.61,5-.91,10.33-1.06,15.51-.23,5.73.89,11.43,2.11,17a78.67,78.67,0,0,0,8.33,22.5c1,1.72,1.74,3.92.43,5.7-3.25,5.29-7.14,10.2-10.21,15.6-3.39,4.17-5.38,9.16-8.57,13.45-.81,1.24-2.16.28-2.73-.6-10.08-13.26-18.37-28-22.62-43.94-2.9-11.93-4.49-24.39-2.44-36.58a96.82,96.82,0,0,1,4.75-19.64c2-4.89,4.33-9.67,6.64-14.45,1.7-3.7,4.59-6.74,6.57-10.28,2.55-4.41,6.22-8,9.32-12.09,3.89-5.11,8.77-9.42,13.47-13.84,3-2.94,6.54-5.2,9.71-7.91,2.56-1.91,5-4.33,8.38-4.8a91.16,91.16,0,0,1,11.64-1.68c5.31-.19,10.53-1.66,15.87-1.11.07.42.22,1.23.29,1.64,1.9,0,3.81.11,5.71.19.17,2.07-.24,4.38,1,6.21,3.5,5,7.89,9.46,11.48,14.44,2.61,3.62,5.65,6.94,8.11,10.67a38.87,38.87,0,0,0,3.83,4.87,18.39,18.39,0,0,1,2.91-5.43c.91,1.85,1.93,3.66,3,5.47a75.32,75.32,0,0,0-1.1,10.16c0,4.47-.93,8.87-1.12,13.33-.16,4.25-1,8.45-1,12.71,0,3.83-1.06,7.57-1.11,11.39,0,5.7-1.4,11.26-1.44,17-1.38,5.6-.46,11.42-1.85,17-.61,3.46-.14,7-.62,10.48,0,1.67-.91,3.74.69,5,3.53,3.22,6.85,6.65,10.62,9.61,2.81,2.31,5.27,5,8.16,7.17.92.09,1.46-.83,2.12-1.28,3.84-3.77,7.93-7.29,11.83-11,2-1.94,4.57-3.43,6-5.81.49-4.44-1.1-8.78-1.13-13.21a99.27,99.27,0,0,0-.94-11c-.44-3.72-.06-7.49-.89-11.16-.93-4.43-.5-9-1.25-13.41-.33-4.87-.72-9.72-1.26-14.56a113.2,113.2,0,0,0-1-11.78c-.32-7-1.55-13.82-1.72-20.79a15.82,15.82,0,0,1,2.54-4.82c2,1.27,2.24,3.49,2.47,5.55,3.8-4.76,7.69-9.48,11.22-14.43,3.47-4.34,6.47-9,10.16-13.2,1.28-1.59,2.82-3.23,3-5.32a113.49,113.49,0,0,0-.05-11.52Z" transform="translate(-178.57 -240.12)"/><path class="cls-7" d="M349.3,679.35c5.86-3.1,12-5.68,17.82-8.88.07,3.83.35,7.68,0,11.52-.15,2.09-1.68,3.73-3,5.32-3.69,4.18-6.69,8.86-10.16,13.2-3.53,5-7.42,9.67-11.22,14.43-.23-2.06-.51-4.28-2.46-5.55.4-3.52,1.4-7,.82-10.59-.5-3.81-.94-7.78-3.3-11l-.61-1.18c4-2.46,8.08-4.76,12-7.25Z" transform="translate(-178.57 -240.12)"/><path class="cls-7" d="M278.44,676.33c4.83-.7,9.66-1.34,14.44-2.29,3.44,1.77,6.82,3.65,10.33,5.3,3.86,2.69,8.49,4.54,11.63,8.06a13.07,13.07,0,0,0-3.36,9.21c0,4.1-.09,8.22.31,12.31a18.13,18.13,0,0,0-2.9,5.43,38,38,0,0,1-3.84-4.87c-2.46-3.73-5.49-7.05-8.11-10.66-3.59-5-8-9.4-11.47-14.44-1.26-1.84-.86-4.15-1-6.22-1.91-.07-3.81-.14-5.72-.19-.07-.41-.21-1.22-.29-1.64Z" transform="translate(-178.57 -240.12)"/><path class="cls-7" d="M242.44,1055c1.37,0,2.74,0,4.11.16,7.3.8,14.67.29,22,.45,4.78.18,9.51-.56,14.27-.64.1.31.32.93.44,1.24-12.9,0-25.8.13-38.69,0a2,2,0,0,1-2.13-1.18Z" transform="translate(-178.57 -240.12)"/><path class="cls-8" d="M314.84,687.4a15,15,0,0,1,7.83-2.62c5.19-.29,11.05-.53,15.2,3,2.36,3.24,2.8,7.21,3.3,11,.58,3.54-.42,7.07-.82,10.59a15.63,15.63,0,0,0-2.55,4.82c-5.36,2.33-11.37,2.57-17.15,2a28.19,28.19,0,0,1-5.9-1.82c-1-1.81-2.05-3.62-3-5.47-.4-4.09-.28-8.21-.31-12.31a13.07,13.07,0,0,1,3.36-9.21Z" transform="translate(-178.57 -240.12)"/><path class="cls-9" d="M314.75,714.39a28.19,28.19,0,0,0,5.9,1.82c5.78.57,11.79.33,17.15-2,.17,7,1.41,13.84,1.73,20.79a110.51,110.51,0,0,1,1,11.78c.54,4.84.94,9.69,1.26,14.56.75,4.44.32,9,1.25,13.41.84,3.67.46,7.44.89,11.16a99.49,99.49,0,0,1,.95,11c0,4.43,1.61,8.77,1.12,13.21-1.46,2.38-4,3.87-6,5.81-3.9,3.7-8,7.22-11.82,11-.67.45-1.2,1.37-2.13,1.28-2.88-2.21-5.35-4.86-8.15-7.17-3.78-3-7.1-6.39-10.63-9.61-1.59-1.27-.73-3.34-.69-5,.48-3.48,0-7,.62-10.48,1.4-5.59.47-11.41,1.86-17,0-5.7,1.47-11.26,1.43-17,.05-3.82,1.12-7.56,1.11-11.39,0-4.26.8-8.46,1-12.71.19-4.46,1.13-8.86,1.12-13.33a77,77,0,0,1,1.1-10.16Z" transform="translate(-178.57 -240.12)"/><path class="cls-10" d="M315.37,830.07c5.42-1.26,11.05-.72,16.58-.66,2.23,0,4.36.62,6.56.87,11.36-.32,22.74-.08,34.11-.15,5.08.09,10.18-.28,15.24.27-.25,4.91.53,9.91-.73,14.74-.78,3.55.38,7.65-1.54,10.9-.14-4.5.77-8.94,1.21-13.4a78.65,78.65,0,0,0,.09-11.69q-23.22-.29-46.46,0a24.13,24.13,0,0,1,2,5.37c.29,1.9-.95,3.56-1.81,5.17a9.34,9.34,0,0,1-6.67,3.17c-5.13.11-10.27.07-15.4,0-2.57,0-4.77-1.42-6.53-3-3.23-2.8-1.75-7.3-.52-10.67-15.23-.18-30.48-.22-45.71,0-.16.94-.3,1.9-.46,2.86l-.89-1.3c.11-.28.35-.83.47-1.1s.2-1.14.26-1.52c14.7.34,29.4,0,44.1.17,2,0,4.09.46,6.1,0m2.33,2.86c-1.52.71-3.28,1.69-3.52,3.45-.34,1.59,1.28,2.8,2.56,3.52,3,.69,6.13.27,9.18.37,3.29-.11,6.68.37,9.89-.45a3.34,3.34,0,0,0,1.82-4.56,7.79,7.79,0,0,0-3.92-2.49c-3.47-.33-7,0-10.45-.12C321.42,832.7,319.49,832.4,317.7,832.93Z" transform="translate(-178.57 -240.12)"/><path d="M265.79,831c15.23-.24,30.48-.2,45.71,0-1.23,3.37-2.71,7.87.52,10.67a2.41,2.41,0,0,1-2.07,1,61.75,61.75,0,0,1-8.71,0,25.31,25.31,0,0,0-10.5-1.59l1.1-.63c-4.87,0-9.58-1.39-14.39-2a29.88,29.88,0,0,1-12.12-4.53c.16-1,.3-1.92.46-2.86Z" transform="translate(-178.57 -240.12)"/><path d="M340.43,831q23.22-.26,46.46,0a78.65,78.65,0,0,1-.09,11.69c-13.39.14-26.79,0-40.2.09a57.44,57.44,0,0,1-5.86-.26l-.12-1c.86-1.61,2.1-3.27,1.81-5.17a24.13,24.13,0,0,0-2-5.37Z" transform="translate(-178.57 -240.12)"/><path d="M317.7,832.93c1.79-.53,3.72-.23,5.56-.28,3.48.12,7-.21,10.45.12a7.79,7.79,0,0,1,3.92,2.49,3.34,3.34,0,0,1-1.82,4.56c-3.21.82-6.6.34-9.89.45-3.05-.1-6.18.32-9.18-.37-1.28-.72-2.9-1.93-2.56-3.52C314.42,834.62,316.18,833.64,317.7,832.93Z" transform="translate(-178.57 -240.12)"/><path d="M360.87,1030.66a102.41,102.41,0,0,1,21.08-4c9.23-.11,18.57-.66,27.65,1.32l2.31.29-1.14.57c3.16-.2,6,1.42,8.59,2.91a13.88,13.88,0,0,1,7.13,12.67,7.63,7.63,0,0,1-2.77,6.69c-2.21,1.84-5.19,2.15-7.83,3.08-5.09.28-10.15.78-15.25.8-10.23,0-20.46.15-30.68-.26-4-.89-8.33.3-12.2-1.22-4.17-.71-8.75-1.65-11.81-4.67a6.61,6.61,0,0,1-.86-8.08c3.45-5.37,9.67-8.31,15.78-10.12Z" transform="translate(-178.57 -240.12)"/><path d="M242.54,1028.63c7.44-1.64,15.08-1.56,22.68-1.45,8.47-.19,16.82,1.52,24.95,3.64,6.7,1.77,13.29,5,17.22,10.7a13.18,13.18,0,0,1,0,6.63c-3,4.09-8.51,5.42-13.42,6-3.42,1-7,.84-10.57.86-14.06-.51-28.15,0-42.22-.25-3.44-.28-6.73-1.35-10.13-1.91-2.65-.53-4.4-3-4.93-5.37-1.11-2.58,0-5.26.68-7.8,2.18-5.54,8-9.49,14.06-10.2,0-.17,0-.49,0-.64l1.67-.21Z" transform="translate(-178.57 -240.12)"/></svg>